<?xml version="1.0" encoding="utf-8"?>
<!-- Generator: Adobe Illustrator 19.0.0, SVG Export Plug-In . SVG Version: 6.00 Build 0)  -->
<svg version="1.1" id="icons" xmlns="http://www.w3.org/2000/svg" xmlns:xlink="http://www.w3.org/1999/xlink" x="0px" y="0px"
	 viewBox="0 0 82.3 67" style="enable-background:new 0 0 82.3 67;" xml:space="preserve">
<style type="text/css">
	.st0{fill:#FFFFFF;}
</style>
<g id="icon_9_">
	<path class="st0" d="M63.1,13.7c-1.6,0-4,1-5.5,1.4C54.8,7.1,47.9,0.5,38.8,0.5c-11.1,0-20.1,8.7-20.7,19.6
		c-0.7-0.1-1.4-0.2-2.1-0.2c-8.6,0-15.6,7-15.6,15.6c0,8.6,7,15.6,15.6,15.6c6.4,0,37.2,0,47,0c10.3,0,18.7-8.4,18.7-18.7
		C81.8,22.1,73.5,13.7,63.1,13.7z"/>
	<g>
		<rect x="56.3" y="62.3" class="st0" width="21.5" height="2"/>
		<rect x="4.6" y="62.3" class="st0" width="21.5" height="2"/>
		<polygon class="st0" points="39.3,54.2 43,54.2 43,60.4 54.6,60.4 54.6,66.5 27.7,66.5 27.7,60.4 39.3,60.4 		"/>
	</g>
</g>
</svg>
