<svg id="icons" xmlns="http://www.w3.org/2000/svg" viewBox="0 0 156.25 156.25"><defs><style>.cls-1{fill:#f7f7f7;}.cls-2{fill:#fff;}.cls-2,.cls-3,.cls-4,.cls-5{stroke:#434a54;stroke-linecap:round;stroke-miterlimit:10;stroke-width:3.13px;}.cls-3{fill:#0096ff;}.cls-4{fill:#ffa912;}.cls-5{fill:none;}</style></defs><title>Vector Smart Object25</title><circle id="label" class="cls-1" cx="78.13" cy="78.12" r="78.12"/><rect class="cls-2" x="78.13" y="35.94" width="37.83" height="84.38"/><rect class="cls-3" x="83.94" y="50.49" width="26.19" height="8.72"/><rect class="cls-4" x="83.94" y="59.21" width="26.19" height="8.73"/><rect class="cls-3" x="83.94" y="67.94" width="26.19" height="8.73"/><rect class="cls-4" x="83.94" y="76.67" width="26.19" height="8.73"/><rect class="cls-3" x="83.94" y="85.4" width="26.19" height="8.73"/><circle class="cls-3" cx="88.31" cy="105.77" r="4.37"/><line class="cls-5" x1="82.49" y1="41.03" x2="111.58" y2="41.03"/><line class="cls-5" x1="82.49" y1="115.22" x2="111.58" y2="115.22"/><line class="cls-5" x1="101.4" y1="110.13" x2="107.22" y2="110.13"/><line class="cls-5" x1="101.4" y1="105.77" x2="107.22" y2="105.77"/><line class="cls-5" x1="101.4" y1="101.4" x2="107.22" y2="101.4"/><rect class="cls-2" x="40.3" y="35.94" width="37.83" height="84.38"/><rect class="cls-4" x="46.12" y="50.49" width="26.19" height="8.72"/><rect class="cls-3" x="46.12" y="59.21" width="26.19" height="8.73"/><rect class="cls-4" x="46.12" y="67.94" width="26.19" height="8.73"/><rect class="cls-3" x="46.12" y="76.67" width="26.19" height="8.73"/><rect class="cls-4" x="46.12" y="85.4" width="26.19" height="8.73"/><circle class="cls-4" cx="50.48" cy="105.77" r="4.36"/><line class="cls-5" x1="44.67" y1="41.03" x2="73.76" y2="41.03"/><line class="cls-5" x1="44.67" y1="115.22" x2="73.76" y2="115.22"/><line class="cls-5" x1="63.58" y1="110.13" x2="69.4" y2="110.13"/><line class="cls-5" x1="63.58" y1="105.77" x2="69.4" y2="105.77"/><line class="cls-5" x1="63.58" y1="101.4" x2="69.4" y2="101.4"/></svg>