<?xml version="1.0" encoding="utf-8"?>
<!-- Generator: Adobe Illustrator 19.2.1, SVG Export Plug-In . SVG Version: 6.00 Build 0)  -->
<svg version="1.1" id="icons" xmlns="http://www.w3.org/2000/svg" xmlns:xlink="http://www.w3.org/1999/xlink" x="0px" y="0px"
	 viewBox="0 0 38.6 36" style="enable-background:new 0 0 38.6 36;" xml:space="preserve">
<style type="text/css">
	.st0{fill:#FFA912;}
	.st1{fill:#0096FF;}
</style>
<g>
	<path class="st0" d="M34.9,28.3H3.7C1.7,28.3,0,30,0,32.2C0,34.3,1.7,36,3.7,36h31.1c2.1,0,3.7-1.7,3.7-3.8
		C38.6,30,36.9,28.3,34.9,28.3z M24.6,32.9H4.5c-0.5,0-0.8-0.4-0.8-0.8c0-0.5,0.4-0.8,0.8-0.8h20.1c0.5,0,0.8,0.4,0.8,0.8
		C25.4,32.6,25.1,32.9,24.6,32.9z M29.6,33.4c-0.7,0-1.3-0.6-1.3-1.3c0-0.7,0.6-1.3,1.3-1.3c0.7,0,1.3,0.6,1.3,1.3
		C30.9,32.8,30.3,33.4,29.6,33.4z M35.5,33.2h-2.2V31h2.2V33.2z"/>
</g>
<g>
	<path class="st1" d="M34.2,10.4c-0.9-3.1-3.2-4.3-5.6-4.3H16v5.6h2.8c0,0,0.9,0,0.5,0.8l-4.6,6.2c0,0-0.7,1-1.5,0l-4.5-6.2
		c-0.2-0.7,0.5-0.7,0.5-0.7h2.9V6.1h-1.8c-2.8,0-5.2,1.4-5.9,4.3L0.1,28c1-0.9,2.3-1.5,3.7-1.5h21.5V21h-2.8c0,0-0.9,0-0.5-0.8
		l4.6-6.2c0,0,0.7-1,1.5,0l4.5,6.2C32.7,21,32,21,32,21h-2.9v5.5h5.8c1.4,0,2.7,0.6,3.7,1.5L34.2,10.4z"/>
	<rect x="11.9" y="3" class="st1" width="4.2" height="1.8"/>
	<rect x="11.9" class="st1" width="4.2" height="1.8"/>
</g>
</svg>
