<?xml version="1.0" encoding="utf-8"?>
<!-- Generator: Adobe Illustrator 19.2.1, SVG Export Plug-In . SVG Version: 6.00 Build 0)  -->
<svg version="1.1" id="icons" xmlns="http://www.w3.org/2000/svg" xmlns:xlink="http://www.w3.org/1999/xlink" x="0px" y="0px"
	 viewBox="0 0 34.9 40" style="enable-background:new 0 0 34.9 40;" xml:space="preserve">
<style type="text/css">
	.st0{fill:#0096FF;}
	.st1{fill:#288FEB;}
	.st2{fill:#FFA912;}
</style>
<path class="st0" d="M17.5,2.9v16.8H3.6c-0.3-1.3-0.5-2.7-0.6-4.2c0-0.7-0.1-5-0.1-5.8C10.2,7.8,13.9,2.9,17.5,2.9z"/>
<path class="st1" d="M31.3,19.8c-2.8,13-13.9,17.1-13.9,17.1V19.8H31.3z"/>
<path class="st0" d="M17.5,19.8H3.6c-0.3-1.3-0.5-2.7-0.6-4.2c0-0.7-0.1-5-0.1-5.8c7.3-2.1,11-6.9,14.5-6.9V19.8z"/>
<path class="st1" d="M17.5,19.8h13.9c-2.8,13-13.9,17.1-13.9,17.1V19.8z"/>
<g>
	<path class="st0" d="M34.4,7.5L32.8,7c-3.3-1-5.9-2.6-8.1-4c-2.5-1.6-4.7-3-7.3-3c-2.6,0-4.7,1.4-7.2,3C8,4.5,5.5,6.1,2.1,7
		L0.5,7.5C0.2,7.6,0,7.8,0,8.1v1.7c0,0.5,0,5.1,0.1,5.9c0.1,1.6,0.3,3.1,0.6,4.6c3.1,14.4,15.2,19.1,15.7,19.3l0.8,0.3
		c0.1,0,0.1,0,0.2,0c0.1,0,0.1,0,0.2,0l0.8-0.3c0.5-0.2,12.6-4.9,15.7-19.3c0.3-1.5,0.5-3,0.6-4.6c0.1-0.8,0.1-5.4,0.1-5.9V8.1
		C34.9,7.8,34.7,7.6,34.4,7.5z M33.6,9.8c0,0.6,0,5.1-0.1,5.9c-0.1,1.5-0.3,3-0.6,4.4C30,33.8,18.5,38.3,18,38.5l-0.6,0.2l-0.6-0.2
		C16.4,38.3,5,33.8,2,20.1c-0.3-1.4-0.5-2.9-0.6-4.4c0-0.8-0.1-5.2-0.1-5.9V8.6l1.2-0.3c3.5-1,6.1-2.7,8.4-4.2
		c2.3-1.5,4.3-2.8,6.6-2.8c2.2,0,4.2,1.3,6.5,2.8c2.3,1.5,4.9,3.2,8.4,4.2l1.2,0.3V9.8z"/>
	<path class="st0" d="M17.5,19.8H3.6c-0.3-1.3-0.5-2.7-0.6-4.2c0-0.7-0.1-5-0.1-5.8c7.3-2.1,11-6.9,14.5-6.9V19.8z"/>
</g>
<path class="st2" d="M31.3,19.8c-2.8,13-13.9,17.1-13.9,17.1V19.8H31.3z"/>
</svg>
