<?xml version="1.0" encoding="utf-8"?>
<!-- Generator: Adobe Illustrator 19.2.1, SVG Export Plug-In . SVG Version: 6.00 Build 0)  -->
<svg version="1.1" id="Office_Icons" xmlns="http://www.w3.org/2000/svg" xmlns:xlink="http://www.w3.org/1999/xlink" x="0px"
	 y="0px" viewBox="0 0 30.7 30.7" style="enable-background:new 0 0 30.7 30.7;" xml:space="preserve">
<style type="text/css">
	.st0{fill:#0096FF;}
</style>
<g>
	<g>
		<path class="st0" d="M24.4,30.7c-3.3,0-9.4-2.3-15.8-8.6C5.1,18.5,2.4,14.6,1,10.9c-1.3-3.5-1.3-6.3,0.1-7.7
			C1.2,3,1.4,2.8,1.6,2.6C2.7,1.4,4.1,0,5.9,0c1.4,0,2.7,0.8,3.9,2.4c3.4,4.2,2.2,6.1,0.1,8.1l-0.3,0.3c0,0-0.7,1.1,4.3,6
			c3.9,3.9,5.4,4.3,5.9,4.3l0,0c0.1,0,0.1,0,0.2,0l0.3-0.3c1-1,2-2.1,3.6-2.1c1.3,0,2.7,0.7,4.5,2.1c1.5,1.2,2.3,2.5,2.4,3.8
			c0.1,1.9-1.4,3.3-2.6,4.5c-0.2,0.2-0.4,0.4-0.6,0.5C26.9,30.4,25.8,30.7,24.4,30.7z M5.9,2c-1,0-2,1.1-2.9,2
			C2.9,4.2,2.7,4.4,2.5,4.6c-0.6,0.6-0.8,2.6,0.4,5.6c1.3,3.4,3.8,7.1,7.2,10.5c5.6,5.6,11.2,8,14.4,8c0.8,0,1.4-0.2,1.8-0.5
			c0.2-0.2,0.4-0.4,0.6-0.6c1-0.9,2-1.9,2-2.9c0-0.7-0.6-1.5-1.6-2.3c-1.4-1.1-2.5-1.7-3.2-1.7c-0.7,0-1.3,0.5-2.2,1.5l-0.3,0.3
			c-0.4,0.4-1,0.6-1.6,0.6l0,0c-1,0-2.9-0.5-7.3-4.9c-3.1-3.1-6.3-6.8-4.3-8.9l0.3-0.3c1.7-1.6,2.3-2.3-0.2-5.5C7.4,2.6,6.6,2,5.9,2
			z"/>
	</g>
</g>
</svg>
