<?xml version="1.0" encoding="utf-8"?>
<!-- Generator: Adobe Illustrator 19.2.1, SVG Export Plug-In . SVG Version: 6.00 Build 0)  -->
<svg version="1.1" id="icons" xmlns="http://www.w3.org/2000/svg" xmlns:xlink="http://www.w3.org/1999/xlink" x="0px" y="0px"
	 viewBox="0 0 42.9 40" style="enable-background:new 0 0 42.9 40;" xml:space="preserve">
<style type="text/css">
	.st0{fill:#FFA912;}
	.st1{fill:#0096FF;}
</style>
<path class="st0" d="M38.7,31.4H4.2c-2.3,0-4.2,1.9-4.2,4.3C0,38.1,1.9,40,4.2,40h34.6c2.3,0,4.2-1.9,4.2-4.3
	C42.9,33.4,41,31.4,38.7,31.4z M27.4,36.6H5c-0.5,0-0.9-0.4-0.9-0.9c0-0.5,0.4-0.9,0.9-0.9h22.3c0.5,0,0.9,0.4,0.9,0.9
	C28.3,36.2,27.9,36.6,27.4,36.6z M32.9,37.1c-0.8,0-1.4-0.6-1.4-1.4c0-0.8,0.6-1.4,1.4-1.4c0.8,0,1.4,0.6,1.4,1.4
	C34.3,36.4,33.7,37.1,32.9,37.1z M39.5,36.9H37v-2.5h2.5V36.9z"/>
<path class="st1" d="M38,11.6c-1-3.4-3.6-4.8-6.2-4.8h-14V13H21c0,0,1,0,0.6,0.9l-5.1,6.8c0,0-0.8,1.1-1.7,0l-5-6.9
	C9.5,13,10.3,13,10.3,13h3.2V6.8h-2c-3.1,0-5.8,1.6-6.6,4.8L0.1,31.1c1.1-1,2.5-1.6,4.1-1.6H28v-6.2h-3.2c0,0-1,0-0.6-0.9l5.1-6.8
	c0,0,0.8-1.1,1.7,0l5,6.9c0.2,0.8-0.5,0.8-0.5,0.8h-3.2v6.2h6.4c1.6,0,3,0.6,4.1,1.6L38,11.6z"/>
<rect x="13.2" y="3.3" class="st1" width="4.7" height="2"/>
<rect x="13.2" class="st1" width="4.7" height="2"/>
</svg>
