<?xml version="1.0" encoding="utf-8"?>
<!-- Generator: Adobe Illustrator 19.2.1, SVG Export Plug-In . SVG Version: 6.00 Build 0)  -->
<svg version="1.1" id="icons" xmlns="http://www.w3.org/2000/svg" xmlns:xlink="http://www.w3.org/1999/xlink" x="0px" y="0px"
	 viewBox="0 0 36.3 36" style="enable-background:new 0 0 36.3 36;" xml:space="preserve">
<style type="text/css">
	.st0{fill:#FFA912;}
	.st1{fill:#0096FF;}
</style>
<g>
	<rect x="25.6" y="33.9" class="st0" width="10.7" height="1"/>
	<rect y="33.9" class="st0" width="10.7" height="1"/>
</g>
<g>
	<polygon class="st1" points="17.2,29.9 19,29.9 19,33 24.8,33 24.8,36 11.5,36 11.5,33 17.2,33 	"/>
	<path class="st1" d="M18.3,0c-8-0.1-14.5,6.3-14.6,14.2C3.7,22.2,10,28.7,18,28.8c7.9,0.1,14.5-6.3,14.6-14.2
		C32.6,6.6,26.3,0.1,18.3,0z M16.8,4.6l0.7,0l0-0.8l-0.5,0l-0.1,0l0-2.1l0.9,0l0-1.1l0.1-0.1c0.2,0,0.3,0,0.5,0
		c0.7,0,1.4,0.1,2.1,0.2l0,0.7l1,0l0,1.1l0,1.6l-0.8,0l-0.7,0.6l-1.6,1.6l-0.8,0.8l-0.7-0.7L16.8,4.6z M14.1,1l0.3,0.3l-0.5,0.5
		l-0.8,0l0,0.8l1.1,0l0.6,0l0,3.6l-1.3,0l0-2.6l-0.9,0l0-1.3l-0.6,0l0,0.7l-0.6,0.5l-1.3,0L9.9,3.1C11.1,2.2,12.6,1.4,14.1,1z
		 M18.5,21.4l-1.2,0l-0.6,0.9l0,2l-1.8,1.3l0,2.4l-2-1.9l0.1-4.8l-2.1-2l0-2.4l-1.5-1.1l-1.3,0l-0.9-1l0-1.3l-0.6-0.4l-0.2,0.5
		l0.3,0.2l0,1.1l-0.8-1l-0.4-1.5L5,12l0-2.7c0.7-1.9,1.8-3.6,3.2-4.9l4.4,0.1l-0.2,0.9l-1.3,0.1L11.3,6l0.3,0.4l-0.4,0.6l-1-0.1
		l0.6,0.8l1,0.8l0.3,0.8L12.6,9l0-2.1l1.2,0l0,0.3l1.2,0l0,1.5l-0.5,0l0,0.6l-0.5,0l0,0.4l0.7,0l-0.5,0.5L14.1,10l-0.5,0.5l0,0.4
		l-0.4,0.4l-0.5,0.5L12,12.3l-0.4,0.4l0,1.3L11,14l0-0.7l-1.9,0l0,0.8l1.8,1.8l3.7,0l0,0.3l1.3,0l1.4,1.9l1.1,0L18.5,21.4z
		 M29.7,13.4l0,1.1l-1.9,0l-0.9-0.9l0-0.6l-0.5,0l0,0.9l1.2,1.3l1.4,0l0,1l-1.3,1.3l0,1.9l0,1.7l-1,0l0,1.9l-0.8,0.8l-1.8,0l0-1.7
		l-1-1l0-3L22,16.7l-2.5,0l-1-1l0-2.5l0.9-0.8l1.4,0l0.9-0.9l0.5,0l0.6,0l0,0.5l3.4,0l0-0.6l-0.8,0l0.5-0.5l0.5-0.5l0.8,0l-0.5-0.5
		l-0.8,0L25,10.6l0,0.6l-0.9-0.9l-0.5,0l0.8,0.8l-0.7,0l-0.5-0.5l0-0.4l-0.8-0.8l-0.6,0.6l-0.5,0.5l0,0.9l-1,0l0-0.4l0-1.4l0.4,0
		l0-0.3L21,9.1l-0.4-0.4L20,9.2l-0.5-0.5l0.2-0.2l0-0.4l0-0.9l0.9,0l0,0.5l0.8,0.8l0.6,0l0-0.6l1.7,0l0-0.6l0.7,0l0-0.9l-0.7,0
		l0-0.8l-0.4,0l0,1.7L23,7.6l-0.6-0.3l-1-0.3l0.1-1l1.1-0.8l0.6-1L24.3,4l-0.1,0.5l0.7,0.1l0,0.5l0.8-0.1l0.4-0.3l0.1-0.4l1.8,0
		c2.6,2.6,4.3,6.2,4.2,10.2c0,0.2,0,0.4,0,0.6l-3-3.1l-0.3,0.3L29.7,13.4z"/>
</g>
</svg>
