<?xml version="1.0" encoding="utf-8"?>
<!-- Generator: Adobe Illustrator 19.2.1, SVG Export Plug-In . SVG Version: 6.00 Build 0)  -->
<svg version="1.1" id="icons" xmlns="http://www.w3.org/2000/svg" xmlns:xlink="http://www.w3.org/1999/xlink" x="0px" y="0px"
	 viewBox="0 0 37 36" style="enable-background:new 0 0 37 36;" xml:space="preserve">
<style type="text/css">
	.st0{fill:#0096FF;}
	.st1{fill:#FFA912;}
</style>
<g>
	<polygon class="st0" points="16.1,30.4 17.8,30.4 17.8,33.3 23,33.3 23,36 10.9,36 10.9,33.3 16.1,33.3 	"/>
	<g>
		<path class="st0" d="M4.3,8.5h25.3c2.4,0,4.3-1.9,4.3-4.3c0-2.4-1.9-4.3-4.3-4.3H4.3C1.9,0,0,1.9,0,4.3C0,6.6,1.9,8.5,4.3,8.5z
			 M4.8,2.8c0.8,0,1.5,0.7,1.5,1.5c0,0.8-0.7,1.5-1.5,1.5C4,5.7,3.4,5.1,3.4,4.3C3.4,3.5,4,2.8,4.8,2.8z"/>
		<path class="st0" d="M21.6,10.9c0.4-0.2,0.7-0.4,1.1-0.6H4.3c-2.4,0-4.3,1.9-4.3,4.3c0,2.4,1.9,4.3,4.3,4.3h12.1
			C16.9,15.5,18.7,12.7,21.6,10.9z M4.8,16c-0.8,0-1.5-0.7-1.5-1.5c0-0.8,0.7-1.5,1.5-1.5c0.8,0,1.5,0.7,1.5,1.5
			C6.3,15.3,5.6,16,4.8,16z"/>
		<path class="st0" d="M16.4,22.3c-0.1-0.6-0.2-1.2-0.2-1.8h-12c-2.4,0-4.3,1.9-4.3,4.3c0,2.4,1.9,4.3,4.3,4.3h15.9
			C18.2,27.4,16.8,25,16.4,22.3z M4.8,26.3c-0.8,0-1.5-0.7-1.5-1.5c0-0.8,0.7-1.5,1.5-1.5c0.8,0,1.5,0.7,1.5,1.5
			C6.3,25.6,5.6,26.3,4.8,26.3z"/>
	</g>
</g>
<g>
	<rect x="23.8" y="34.1" class="st1" width="9.7" height="0.9"/>
	<rect x="0.4" y="34.1" class="st1" width="9.7" height="0.9"/>
	<path class="st1" d="M27.6,11.1c-1.8,0-3.5,0.5-5,1.4c-2.6,1.6-4.4,4.6-4.4,7.9c0,0,0,0.1,0,0.1c0,0.5,0.1,1,0.1,1.5
		c0.7,4.1,4,7.3,8.1,7.8c0.4,0,0.8,0.1,1.1,0.1c5.2,0,9.4-4.2,9.4-9.4S32.8,11.1,27.6,11.1z M31.8,21.7h-3v1.5v1.5h-2.4v-3h-3v-0.1
		v-1.1v-1.1h3v-3h2.3h0.1v0.3v2.2v0.5h3V21.7z"/>
</g>
</svg>
