<?xml version="1.0" encoding="utf-8"?>
<!-- Generator: Adobe Illustrator 19.2.1, SVG Export Plug-In . SVG Version: 6.00 Build 0)  -->
<svg version="1.1" id="icons" xmlns="http://www.w3.org/2000/svg" xmlns:xlink="http://www.w3.org/1999/xlink" x="0px" y="0px"
	 viewBox="0 0 42 42" style="enable-background:new 0 0 42 42;" xml:space="preserve">
<style type="text/css">
	.st0{fill:#FFA912;}
	.st1{fill:#0096FF;}
</style>
<g>
	<path class="st0" d="M14,15.5c0.5-0.4,1.1-1.2,1.6-1c0.6,0.7,1.4,1.6,2.1,2.4c0.2,0.3,0.5,0.6,0.5,0.8c0,0.5-0.8,0.8-1.3,1.3
		C16,17.9,15,16.7,14,15.5C14,15.5,14,15.5,14,15.5z"/>
	<path class="st0" d="M20.9,28.5c-0.9-0.4-2.2-1-4.9-4.1c-2.7-3.1-3-5.4-3-6.2c0-0.8,0.2-1.6,0.6-2.4c1,1.1,2,2.3,3,3.5
		c0,0.1-0.2,0.3-0.2,0.4c0,0.1,0.3,0.7,0.4,0.9c0.6,1.2,2,2.9,3.2,3.8c0.5,0.4,1.1,1.1,1.6,0.6c1,1.2,2,2.4,3,3.6
		C23.4,29.1,22,29.1,20.9,28.5z"/>
	<path class="st0" d="M25,28.3c-1-1.2-2-2.3-3-3.5c0,0,0,0,0-0.1c0.5-0.3,1.1-1.2,1.6-1c0.2,0.1,0.5,0.5,0.7,0.7
		c0.6,0.7,1.5,1.8,2,2.4C26.3,27.4,25.5,27.9,25,28.3z"/>
</g>
<g>
	<path class="st1" d="M20.5,9.4c0-0.3,0.2-0.5,0.5-0.5c0.3,0,0.5,0.2,0.5,0.5V11c0,0.3-0.2,0.5-0.5,0.5c-0.3,0-0.5-0.2-0.5-0.5V9.4z
		"/>
	<path class="st1" d="M22.7,16c-0.1-0.2-0.3-0.3-0.6-0.3c-0.3,0-0.5,0.1-0.6,0.3c-0.1,0.2-0.2,0.4-0.2,0.7h-0.9
		c0-0.4,0.1-0.8,0.4-1.2c0.3-0.4,0.7-0.6,1.3-0.6c0.5,0,1,0.2,1.3,0.5c0.3,0.3,0.4,0.7,0.4,1.1c0,0.4-0.1,0.7-0.3,0.9
		c-0.2,0.2-0.4,0.4-0.6,0.6l-1,0.7c-0.1,0.1-0.2,0.2-0.3,0.2c-0.1,0.1-0.1,0.2-0.2,0.3h2.4v0.9h-3.5c0-0.4,0.1-0.7,0.2-1.1
		c0.1-0.3,0.4-0.7,0.9-1l0.9-0.6c0.1-0.1,0.3-0.2,0.4-0.3c0.1-0.1,0.2-0.3,0.2-0.5C22.9,16.4,22.8,16.2,22.7,16z"/>
	<path class="st1" d="M11,21.5H9.4c-0.3,0-0.5-0.2-0.5-0.5c0-0.3,0.2-0.5,0.5-0.5H11c0.3,0,0.5,0.2,0.5,0.5
		C11.5,21.3,11.3,21.5,11,21.5z"/>
	<path class="st1" d="M21.5,32.6c0,0.3-0.2,0.5-0.5,0.5c-0.3,0-0.5-0.2-0.5-0.5V31c0-0.3,0.2-0.5,0.5-0.5c0.3,0,0.5,0.2,0.5,0.5
		V32.6z"/>
	<path class="st1" d="M27.2,18.6V15h-0.9l-2.2,3.4v1h2.2l0,0.8h0.9v-0.8h0.5v-0.9H27.2z M26.3,18.6H25l1.3-2l0,0V18.6z"/>
	<path class="st1" d="M32.6,21.5H31c-0.3,0-0.5-0.2-0.5-0.5c0-0.3,0.2-0.5,0.5-0.5h1.6c0.3,0,0.5,0.2,0.5,0.5
		C33.1,21.3,32.9,21.5,32.6,21.5z"/>
	<g id="_x33_3">
		<path class="st1" d="M41.4,18.1L37,17.6c-0.4-2-1.2-3.9-2.3-5.5l2.8-3.5c0.2-0.2,0.2-0.6-0.1-0.9l-3.1-3.1
			c-0.2-0.2-0.6-0.2-0.9-0.1l-3.5,2.8c-1.7-1.1-3.5-1.9-5.5-2.3l-0.5-4.4c0-0.3-0.3-0.6-0.6-0.6h-4.4c-0.3,0-0.6,0.3-0.6,0.6L17.6,5
			c-2,0.4-3.9,1.2-5.5,2.3L8.6,4.5C8.3,4.3,7.9,4.4,7.7,4.6L4.6,7.7C4.4,7.9,4.3,8.3,4.5,8.6l2.8,3.5c-1.1,1.7-1.9,3.5-2.3,5.5
			l-4.4,0.5c-0.3,0-0.6,0.3-0.6,0.6v4.4c0,0.3,0.3,0.6,0.6,0.6L5,24.4c0.4,2,1.2,3.9,2.3,5.6l-2.8,3.5c-0.2,0.2-0.2,0.6,0.1,0.9
			l3.1,3.1c0.2,0.2,0.6,0.2,0.9,0l3.5-2.8c1.7,1.1,3.5,1.9,5.5,2.3l0.5,4.4c0,0.3,0.3,0.6,0.6,0.6h4.4c0.3,0,0.6-0.3,0.6-0.6
			l0.5-4.4c2-0.4,3.9-1.2,5.5-2.3l3.5,2.8c0.3,0.2,0.6,0.2,0.9,0l3.1-3.1c0.2-0.2,0.2-0.6,0.1-0.9l-2.8-3.5c1.1-1.7,1.9-3.5,2.3-5.6
			l4.4-0.5c0.3,0,0.6-0.3,0.6-0.6v-4.4C42,18.5,41.7,18.2,41.4,18.1z M21,34.7c-7.5,0-13.6-6.1-13.6-13.7c0-7.5,6.1-13.7,13.6-13.7
			c7.5,0,13.7,6.1,13.7,13.7C34.6,28.5,28.5,34.7,21,34.7z"/>
	</g>
</g>
</svg>
