<?xml version="1.0" encoding="utf-8"?>
<!-- Generator: Adobe Illustrator 19.2.1, SVG Export Plug-In . SVG Version: 6.00 Build 0)  -->
<svg version="1.1" id="icons" xmlns="http://www.w3.org/2000/svg" xmlns:xlink="http://www.w3.org/1999/xlink" x="0px" y="0px"
	 viewBox="0 0 44.6 40" style="enable-background:new 0 0 44.6 40;" xml:space="preserve">
<style type="text/css">
	.st0{fill:#0096FF;}
	.st1{fill:#FFA912;}
</style>
<g>
	<g>
		<rect x="19.4" y="31.4" class="st0" width="1.3" height="1"/>
		<rect x="21.9" y="31.4" class="st0" width="1.3" height="1"/>
		<rect x="9.5" y="21.3" class="st0" width="1" height="1.3"/>
		<rect x="9.5" y="18.8" class="st0" width="1" height="1.3"/>
	</g>
	<g>
		<path class="st0" d="M19.6,2.5c0-1.4-1.1-2.5-2.5-2.5H2.5C1.1,0,0,1.1,0,2.5c0,1.4,1.1,2.5,2.5,2.5h14.6
			C18.5,4.9,19.6,3.8,19.6,2.5z M3.6,2.5c0,0.5-0.4,0.8-0.8,0.8c-0.5,0-0.8-0.4-0.8-0.8c0-0.5,0.4-0.8,0.8-0.8
			C3.3,1.6,3.6,2,3.6,2.5z"/>
		<path class="st0" d="M19.6,8.4c0-1.4-1.1-2.5-2.5-2.5H2.5C1.1,5.9,0,7,0,8.4c0,1.4,1.1,2.5,2.5,2.5h14.6
			C18.5,10.9,19.6,9.8,19.6,8.4z M3.6,8.4c0,0.5-0.4,0.8-0.8,0.8c-0.5,0-0.8-0.4-0.8-0.8c0-0.5,0.4-0.8,0.8-0.8
			C3.3,7.6,3.6,7.9,3.6,8.4z"/>
		<path class="st0" d="M19.6,14.3c0-1.4-1.1-2.5-2.5-2.5H2.5C1.1,11.9,0,13,0,14.3c0,1.4,1.1,2.5,2.5,2.5h14.6
			C18.5,16.8,19.6,15.7,19.6,14.3z M3.6,14.3c0,0.5-0.4,0.8-0.8,0.8c-0.5,0-0.8-0.4-0.8-0.8c0-0.5,0.4-0.8,0.8-0.8
			C3.3,13.5,3.6,13.9,3.6,14.3z"/>
	</g>
	<g>
		<path class="st0" d="M44.6,25.7c0-1.4-1.1-2.5-2.5-2.5H27.5c-1.4,0-2.5,1.1-2.5,2.5c0,1.4,1.1,2.5,2.5,2.5h14.6
			C43.5,28.1,44.6,27,44.6,25.7z M28.7,25.7c0,0.5-0.4,0.8-0.8,0.8c-0.5,0-0.8-0.4-0.8-0.8c0-0.5,0.4-0.8,0.8-0.8
			C28.3,24.8,28.7,25.2,28.7,25.7z"/>
		<path class="st0" d="M44.6,31.6c0-1.4-1.1-2.5-2.5-2.5H27.5c-1.4,0-2.5,1.1-2.5,2.5c0,1.4,1.1,2.5,2.5,2.5h14.6
			C43.5,34.1,44.6,33,44.6,31.6z M28.7,31.6c0,0.5-0.4,0.8-0.8,0.8c-0.5,0-0.8-0.4-0.8-0.8c0-0.5,0.4-0.8,0.8-0.8
			C28.3,30.8,28.7,31.1,28.7,31.6z"/>
		<path class="st0" d="M44.6,37.5c0-1.4-1.1-2.5-2.5-2.5H27.5c-1.4,0-2.5,1.1-2.5,2.5c0,1.4,1.1,2.5,2.5,2.5h14.6
			C43.5,40,44.6,38.9,44.6,37.5z M28.7,37.5c0,0.5-0.4,0.8-0.8,0.8c-0.5,0-0.8-0.4-0.8-0.8s0.4-0.8,0.8-0.8
			C28.3,36.7,28.7,37.1,28.7,37.5z"/>
	</g>
</g>
<g>
	<polygon class="st1" points="18,28 10.1,24 2.2,28 10.1,32 	"/>
	<polygon class="st1" points="10.1,33.4 5.2,31 2.2,32 10.1,35.9 18,32 15.2,30.9 	"/>
	<polygon class="st1" points="10.1,37.4 5.2,34.9 2.2,35.9 10.1,39.9 18,35.9 15.2,34.9 	"/>
</g>
</svg>
