<?xml version="1.0" encoding="utf-8"?>
<!-- Generator: Adobe Illustrator 19.2.1, SVG Export Plug-In . SVG Version: 6.00 Build 0)  -->
<svg version="1.1" id="Office_Icons" xmlns="http://www.w3.org/2000/svg" xmlns:xlink="http://www.w3.org/1999/xlink" x="0px"
	 y="0px" viewBox="0 0 32 23" style="enable-background:new 0 0 32 23;" xml:space="preserve">
<style type="text/css">
	.st0{fill:#0096FF;}
</style>
<g>
	<g>
		<g>
			<path class="st0" d="M25.6,18c-0.2,0-0.5-0.1-0.7-0.3l-5.8-5.4c-0.4-0.4-0.4-1,0-1.4c0.4-0.4,1-0.4,1.4,0l5.8,5.4
				c0.4,0.4,0.4,1,0,1.4C26.1,17.9,25.9,18,25.6,18z"/>
		</g>
		<g>
			<path class="st0" d="M6.4,18c-0.3,0-0.5-0.1-0.7-0.3c-0.4-0.4-0.4-1,0-1.4l5.8-5.4c0.4-0.4,1-0.4,1.4,0c0.4,0.4,0.4,1,0,1.4
				l-5.8,5.4C6.9,17.9,6.6,18,6.4,18z"/>
		</g>
	</g>
	<g>
		<path class="st0" d="M29,23H3c-1.7,0-3-1.3-3-3V3c0-1.7,1.3-3,3-3h26c1.7,0,3,1.3,3,3v17C32,21.7,30.7,23,29,23z M3,2
			C2.4,2,2,2.4,2,3v17c0,0.6,0.4,1,1,1h26c0.6,0,1-0.4,1-1V3c0-0.6-0.4-1-1-1H3z"/>
	</g>
	<g>
		<path class="st0" d="M16,15.3c-0.2,0-0.5-0.1-0.7-0.2L1.7,3.2c-0.4-0.4-0.5-1-0.1-1.4c0.4-0.4,1-0.5,1.4-0.1L16,13l13-11.3
			c0.4-0.4,1-0.3,1.4,0.1c0.4,0.4,0.3,1-0.1,1.4L16.7,15.1C16.5,15.2,16.2,15.3,16,15.3z"/>
	</g>
</g>
</svg>
