<?xml version="1.0" encoding="utf-8"?>
<!-- Generator: Adobe Illustrator 19.2.1, SVG Export Plug-In . SVG Version: 6.00 Build 0)  -->
<svg version="1.1" id="icons" xmlns="http://www.w3.org/2000/svg" xmlns:xlink="http://www.w3.org/1999/xlink" x="0px" y="0px"
	 viewBox="0 0 37.6 40" style="enable-background:new 0 0 37.6 40;" xml:space="preserve">
<style type="text/css">
	.st0{fill:#FFA912;}
	.st1{fill:#288FEB;}
</style>
<rect x="26.4" y="37.9" class="st0" width="10.8" height="1"/>
<rect x="0.4" y="37.9" class="st0" width="10.8" height="1"/>
<polygon class="st1" points="17.9,33.8 19.7,33.8 19.7,37 25.6,37 25.6,40 12.1,40 12.1,37 17.9,37 "/>
<path class="st1" d="M37.6,4.7c0-2.6-2.1-4.7-4.7-4.7H4.7C2.1,0,0,2.1,0,4.7c0,2.6,2.1,4.7,4.7,4.7h28.1C35.5,9.5,37.6,7.3,37.6,4.7
	z M7,4.7c0,0.9-0.7,1.6-1.6,1.6c-0.9,0-1.6-0.7-1.6-1.6c0-0.9,0.7-1.6,1.6-1.6C6.3,3.1,7,3.8,7,4.7z"/>
<path class="st1" d="M37.6,16.1c0-2.6-2.1-4.7-4.7-4.7H4.7c-2.6,0-4.7,2.1-4.7,4.7c0,2.6,2.1,4.7,4.7,4.7h28.1
	C35.5,20.9,37.6,18.8,37.6,16.1z M7,16.1c0,0.9-0.7,1.6-1.6,1.6c-0.9,0-1.6-0.7-1.6-1.6c0-0.9,0.7-1.6,1.6-1.6
	C6.3,14.5,7,15.3,7,16.1z"/>
<path class="st1" d="M37.6,27.6c0-2.6-2.1-4.7-4.7-4.7H4.7c-2.6,0-4.7,2.1-4.7,4.7c0,2.6,2.1,4.7,4.7,4.7h28.1
	C35.5,32.3,37.6,30.2,37.6,27.6z M7,27.6c0,0.9-0.7,1.6-1.6,1.6c-0.9,0-1.6-0.7-1.6-1.6c0-0.9,0.7-1.6,1.6-1.6
	C6.3,25.9,7,26.7,7,27.6z"/>
</svg>
