<?xml version="1.0" encoding="utf-8"?>
<!-- Generator: Adobe Illustrator 19.2.1, SVG Export Plug-In . SVG Version: 6.00 Build 0)  -->
<svg version="1.1" id="Background" xmlns="http://www.w3.org/2000/svg" xmlns:xlink="http://www.w3.org/1999/xlink" x="0px" y="0px"
	 viewBox="0 0 578.7 119.9" style="enable-background:new 0 0 578.7 119.9;" xml:space="preserve">
<style type="text/css">
	.st0{fill:#0096FF;}
	.st1{fill:#222222;}
</style>
<g>
	<path class="st0" d="M578.7,6v114H5.5l0.9-2.1C19.2,89.5,45,70,75.5,65.8c3.3-0.5,6.5-0.7,9.3-0.7c7.1,0,14.1,1.1,20.8,3.4
		c14.1-23,39.1-37,66.2-37c24.8,0,47.7,11.7,62.3,31.4c12.4-8,26.7-12.2,41.6-12.2c28.3,0,54.2,15.6,67.6,40.3c9.6-5.9,20.6-9,32-9
		c11.9,0,23.6,3.5,33.5,9.9c9.8-29.7,38-50.6,69.8-50.6c3.2,0,6.5,0.2,9.8,0.7C506.9,18.8,535.2,5,564.9,5
		C569.5,5,574.2,5.3,578.7,6z"/>
	<path class="st1" d="M564.9,0c-16.3,0-32.4,3.9-46.8,11.3c-12.1,6.2-23,14.9-31.8,25.4c-2.6-0.3-5.1-0.4-7.6-0.4
		c-18,0-35.6,6.3-49.6,17.7c-10,8.2-17.9,18.8-22.8,30.6c-9.5-5-20.1-7.6-30.9-7.6c-10.6,0-20.9,2.5-30.2,7.2
		c-14.9-23.7-41.1-38.5-69.5-38.5c-14.3,0-28.1,3.6-40.4,10.6c-15.6-18.9-38.7-29.8-63.6-29.8c-27.5,0-53,13.7-68.3,36.2
		c-6.1-1.7-12.3-2.5-18.7-2.5c-3.1,0-6.4,0.3-10,0.7C58.9,63,43.8,69.3,31,79.1c-12.6,9.6-22.7,22.3-29.2,36.8L0,119.9h11
		c11.8-26.2,36.1-45.2,65.2-49.2c3.1-0.4,6-0.7,8.6-0.7c8.2,0,15.9,1.6,23.1,4.5c12.3-22.7,36.3-38.2,64-38.2
		c25.6,0,48.1,13.3,61.1,33.4c12-8.9,26.8-14.1,42.8-14.1c29.3,0,54.5,17.5,65.7,42.6c9.5-7.1,21.2-11.4,33.9-11.4
		c13.9,0,26.6,5,36.4,13.3c6.7-30.9,34.1-54,66.9-54c4.1,0,8.1,0.4,11.9,1.1C507.5,24.7,534.5,10,564.9,10c4.7,0,9.3,0.4,13.8,1V0.9
		C574.2,0.3,569.5,0,564.9,0z"/>
</g>
</svg>
