<?xml version="1.0" encoding="utf-8"?>
<!-- Generator: Adobe Illustrator 19.2.1, SVG Export Plug-In . SVG Version: 6.00 Build 0)  -->
<svg version="1.1" id="Layer_1" xmlns="http://www.w3.org/2000/svg" xmlns:xlink="http://www.w3.org/1999/xlink" x="0px" y="0px"
	 viewBox="0 0 349.9 293.8" style="enable-background:new 0 0 349.9 293.8;" xml:space="preserve">
<style type="text/css">
	.glob_path1{opacity:0.6;fill:#FFFFFF;}
	.globe_path2{opacity:0;fill:none;stroke:#FFFFFF;stroke-width:0.1;stroke-miterlimit:10;}
	.globe_path3{opacity:0.5;}
	.globe_path4{fill:none;stroke:#FFFFFF;stroke-miterlimit:10;stroke-dasharray:11.9484,11.9484;}
	.globe_path5{opacity:0.5;fill:none;stroke:#FFFFFF;stroke-miterlimit:10;}
	.globe_path6{fill:#375972;}
	.globe_path7{fill:#FFFFFF;}
	.globe_path8{fill:#E6E6E6;}
	.globe_path9{fill:#4D4D4D;}
	.globe_path10{fill:#313131;}
	.globe_path11{fill:#FFD15F;}
	.globe_path12{fill:#FBB03B;}
	.globe_path13{fill:#232323;}
	.globe_path14{fill:#47BDD7;}
	.globe_path15{fill:#ECE6DA;}
	.globe_path16{fill:#24394C;}
	.globe_path17{fill:none;}
</style>
<g id="globe">
	<g>
		<path class="glob_path1" d="M251.4,107.3l-5.7,0.1l-2.9-3.1l-0.6-5.1l-2.9,1.6l-1.6,6.2l-4.2-4.5l-0.2-4.3l-4.1-3.5l-1.5-1.5H223l1.5,4.2
			l5.7,3.2l1,1l-1.2,0.6l0,3.3l-2.8,1.2l-2.4-0.5l-1.5-2.1l3.9,0.2l1-1.4l-8.6-5.8l-0.7-2.5l-3.5,3.1l-3.5-0.7l-5.4,7l-1,2.7
			l-3.4,0.3l-5.1,0l-3-1.4l-0.9-6l1.1-2.9l5.2-1.1l5.7,1.1l0.7-3.1l-2.4-0.6l0.8-4.9l5.7-0.9l4-5.6l4.1-0.7l3.7,0.5h1.3l-0.7-5.3
			l-4.5,1.8l-1.6-3.9l-2.6-0.4l-0.5-2.7l2.1-2.3l5.1-2l1.3-2.3c-19.3-17-44.5-27.3-72.2-27.4h-0.3c-24.1,0-46.3,7.8-64.5,21l5.5,0
			l2.5,1.4l4.7,1l0.4,1.8l7.4,0.3l-1-2.4l-6.6-0.2l1.6-1.5l-0.5-1.7h-5.9L99,52h6.2l2.9,4l4.8,0.3l2.9-2.8l2.2,1.1l-4,3.9l-5.3,0.1
			c0.3,0,0.5,3.8,0.5,3.8l6.7-0.2l0.7-1.8l4.6-0.3l0.5-2.7l-2.7-0.5l0.9-2.5l2.1-0.6l7.3,0.4l-4,3.6l0.7,2.8l4.2,0.6l-0.3-5.1l4-2.1
			l7.1-0.8l8.2,3.6l2.1,0.9v3.9l3.3,0.8l-1.6,3.1h-4.7l-1.4,3.5l-10.6-2.5l8.3-4.4l-3.2-2.7l-7.2,0.9l-0.6,0.7l0,0l-0.1,0.2
			l-2.1,2.2l-3.4,0.3l0.3,1.7l1.2,0.5l0,0.6l-2.8,0.4l-0.2,1.6l-2.7,0.1l-0.5-3.2l-4.8,1.5l-9.8,5.7l1.1,4l2.7,1.8l5.5,0.8v6.2
			l2.5-0.4l2.3-4.8l5.8-1.9v-7.4l3.2-2.4l7.8,1.8l-0.6,4.9h2.1l5.7-2.8l0.3,6.5l1.9,1.2l2.3,1.4l-0.2,3.8l-2.1,0.7l-1.9,0.7l0.3,1.3
			l1.7,0.8l3.2,1.5l-0.1,2.6l-1.4,0.1c0,0,0-0.1,0-0.1l-1.7-0.5l-4.4-1.4l-0.3-2l1.8-1.2v-1.8l-1.9-0.5l-0.5,1.6l-3.4,0.5l-0.3-0.1
			v0.2l-1.2,0.2l-0.9-1.9l-1.1-0.5h-2.4l-1.1,0.9v2l2,0.7l2,0.3l-0.5,0.2l-1.8,2l-0.8-1l-1.8-0.5l-4.9,4.6l0.6,0.5l-7.2,4l-6.8,7
			l-0.5,3.1l-6.8,4.4l-3.3,3.4l0.4,6.8l-4.6-2.2l0-3.9H87l-6.7,3.4l-2.9,5.4l-1.2,4.2l1.9,4.1l5.3,0.6l8.4-5.6l0.7,2.8l-2.6,4.8
			l6.4,1.1l0.6,9.9l8.8,1.5l5.6-6.4l6.8,1.4l2.4,3.3l6.5-0.4l0.2-1.9l3.6,1.7l4,6.3l6.9,0.1l2.6,4.5l0.4,5.5l4.9,1.9l2.7,1l9.7,0.1
			l2.8,4.6l4.3,1.4l-0.8,3.8l-4.7,6l-1.4,13.2l-4.2,3.4l-6.3-0.2l-2.1,3.6v0l1.5,6.8l-1.5,2l-5.3,6.8l-2.2,4l-6.5,3.1l-4.3,0.7
			l-0.2,1.8l3,0.9l-0.4,1.9l-2.7,2.6l1.6,2.1l3.2,0.1l-0.2,2.5l-0.9,2.5l-0.3,2l4.8,4l-0.6,2.1l-6.5-0.1l-6.5-5.7l-5.1-8.9l0.7-8.6
			l-3.8-5.1l1.5-8.7l-2.3-0.6v-18.8c0,0-6.4-4.8-6.8-4.8c-0.4,0-3.4-0.8-3.4-0.8l-0.6-3.6l-8.3-10.4l0.8-3.7l0.3-6.1l5.7-4l-0.8-6.8
			l-8.4-0.6l-6.6-7.5l-4.7-1.3l-3-0.5l0.4-2.7l-3.8-0.5v1.5l-9.6-2.4l-3.8-5.9l1.6-2.9l-6.1-8.8l-1.1-6.5h-2.5l0.8,6.3l4.2,6.5
			l-0.5,2.6l-3.5-0.5l-4.4-7.5v-8.7l-4.5-2.2V104c-5.6,13.2-8.8,27.7-8.8,42.9c0,60.5,49.2,109.7,109.7,109.7h0.3
			c34.2-0.1,64.8-15.9,84.8-40.5h-3.6v-7.3l-4.2-5.6v-8.8l-3.2-3.2l-0.3-3.7l4.1-7.8l-7.7-13.6l0.9-9.2l-6.9-0.7l-2.6-2.6h-4.6
			l-2.4,2.2h-8.2l-0.3,0.7h-4.6l-10.5-11.9l0.1-9.3l1.7-0.6l0.6-3.6h-2.5l-1-3.7l12.1-8.8v-6.2l5.9-3.3l2.4,0.2h4.9l3.8-2.1l12.3-1
			v6.3l9.7,2.5l1.9,1.4h1.8v-3.4l5.6-0.6l5.3,4h8.7l0.6-0.6C253.5,113,252.5,110.1,251.4,107.3z M199.6,76.1l1-1.6l3.6-0.7l0.9,4.4
			l1.9,3.1l1.3,1.5l2.3,0.9l-2.2,2.6l-4.2,0.4H201l0.4-3.8l2.6-0.5l-0.2-1.8l-2.5-1.5l-1.7-1.2V76.1z M193.7,82.9l2.2-3.5l2.9-0.7
			l2.1,0.9l-0.2,2.4l-4.5,3.2h-2.5V82.9z M134.1,96.4l-2.3,0.2l0.1-1.6l1-1.3l1.4,1.1L134.1,96.4z M142.1,93.6l-1.6,0.1l-0.3,1.5
			L139,96l-1.9,0.2c-0.1-0.5-0.1-0.8-0.1-0.8h-0.7v-1.6h3.1l0.6-1.7l1.3,0l1.4,0.3L142.1,93.6z"/>
	</g>
	<circle class="globe_path2" cx="149.1" cy="146.9" r="109.7"/>
</g>
<g id="circle">
	<g class="globe_path3">
		<circle class="globe_path4" cx="146.9" cy="146.9" r="117.9"/>
	</g>
</g>
<g id="elements">
	<circle class="globe_path5" cx="146.9" cy="146.9" r="134.4"/>
	<path class="globe_path6" d="M79.6,166.4l-8.1-7.2h-6.1l-2.7,3.4l-2.7-3.4h-3.7l-4.9,4.6l-3.2-4.6H44L41,162l-2.9-2.7h-2.8
		c-2.6-5-7.8-8.5-13.9-8.5c-8.6,0-15.6,7-15.6,15.6c0,8.6,7,15.6,15.6,15.6c6.1,0,11.3-3.4,13.9-8.5h36.2L79.6,166.4z M26,166.4
		c0,2.6-2.1,4.6-4.6,4.6c-2.6,0-4.6-2.1-4.6-4.6s2.1-4.6,4.6-4.6C23.9,161.8,26,163.9,26,166.4z"/>
	<polygon class="globe_path7" points="149.4,202.7 149.4,202.8 149.4,202.7 	"/>
	<circle class="globe_path5" cx="146.9" cy="146.9" r="146.4"/>
	<g>
		<path class="globe_path7" d="M267.9,81.1c-0.8-11.6-10-20.9-21.6-21.7v0h-3.1v0c-11.6,0.8-20.9,10-21.7,21.7h0v3.1h0
			c0.8,11.6,10,20.9,21.7,21.6v0.1h3.1v-0.1c11.6-0.8,20.9-10,21.6-21.6h0.1L267.9,81.1L267.9,81.1z M236,64.4
			c-1.5,2-2.8,4.5-3.7,7.3h-4.6C229.7,68.6,232.6,66.1,236,64.4L236,64.4z M226.1,74.9h5.4c-0.4,2-0.7,4-0.8,6.2h-6.2
			C224.7,78.9,225.3,76.8,226.1,74.9L226.1,74.9z M224.6,84.2h6.2c0.1,2.2,0.3,4.3,0.8,6.2h-5.4C225.3,88.4,224.7,86.4,224.6,84.2
			L224.6,84.2z M227.7,93.5h4.6c0.9,2.8,2.2,5.3,3.7,7.3C232.6,99.2,229.7,96.6,227.7,93.5L227.7,93.5z M243.1,102.6
			c-3.2-0.8-5.9-4.3-7.6-9.1h7.6V102.6z M243.1,90.4h-8.5c-0.4-1.9-0.7-4-0.8-6.2h9.3V90.4z M243.1,81.1h-9.3
			c0.1-2.2,0.4-4.3,0.8-6.2h8.5V81.1z M243.1,71.8h-7.6c1.7-4.8,4.4-8.2,7.6-9.1V71.8z M261.7,71.8H257c-0.9-2.8-2.2-5.3-3.7-7.3
			C256.8,66.1,259.6,68.6,261.7,71.8L261.7,71.8z M246.2,62.7c3.2,0.8,5.9,4.3,7.6,9.1h-7.6V62.7z M246.2,74.9h8.5
			c0.4,1.9,0.7,4,0.8,6.2h-9.3V74.9z M246.2,84.2h9.3c-0.1,2.2-0.4,4.3-0.8,6.2h-8.5V84.2z M246.2,102.6v-9.1h7.6
			C252.1,98.3,249.4,101.7,246.2,102.6L246.2,102.6z M253.4,100.8c1.5-2,2.8-4.5,3.7-7.3h4.6C259.6,96.6,256.8,99.2,253.4,100.8
			L253.4,100.8z M263.3,90.4h-5.4c0.4-2,0.7-4,0.8-6.2h6.2C264.6,86.4,264.1,88.4,263.3,90.4L263.3,90.4z M258.6,81.1
			c-0.1-2.2-0.3-4.3-0.8-6.2h5.4c0.8,1.9,1.3,4,1.5,6.2H258.6z M258.6,81.1"/>
	</g>
	<g>
		<g>
			<g>
				<path class="globe_path7" d="M146.9,93h-13.1c-12.4,0-22.5,10.1-22.5,22.5v21h10.9v-21c0-6.4,5.2-11.6,11.6-11.6h13.1V93z"/>
				<path class="globe_path8" d="M146.9,93H160c12.4,0,22.5,10.1,22.5,22.5v21h-10.9v-21c0-6.4-5.2-11.6-11.6-11.6h-13.1V93z"/>
			</g>
			<g>
				<path class="globe_path7" d="M146.9,93h-13.1c-12.4,0-22.5,10.1-22.5,22.5v21h10.9v-21c0-6.4,5.2-11.6,11.6-11.6h13.1V93z"/>
				<path class="globe_path8" d="M146.9,93H160c12.4,0,22.5,10.1,22.5,22.5v21h-10.9v-21c0-6.4-5.2-11.6-11.6-11.6h-13.1V93z"/>
			</g>
		</g>
		<g>
			<g>
				<rect x="106.7" y="134.8" class="globe_path8" width="40.2" height="63.2"/>
				
					<rect x="146.9" y="134.8" transform="matrix(-1 -1.224647e-016 1.224647e-016 -1 334.0101 332.8158)" class="globe_path10" width="40.2" height="63.2"/>
			</g>
			<g>
				<rect x="106.7" y="134.8" class="globe_path11" width="40.2" height="63.2"/>
				
					<rect x="146.9" y="134.8" transform="matrix(-1 -1.224647e-016 1.224647e-016 -1 334.0101 332.8158)" class="globe_path12" width="40.2" height="63.2"/>
			</g>
		</g>
		<circle class="globe_path12" cx="146.9" cy="166.4" r="16.3"/>
		<path class="globe_path13" d="M152.8,163.2c0-3.3-2.7-5.9-5.9-5.9c-3.3,0-5.9,2.7-5.9,5.9c0,2.5,1.6,4.7,3.9,5.6v4.8
			c0,1.1,0.9,2.1,2.1,2.1c1.1,0,2.1-0.9,2.1-2.1v-4.8C151.2,167.9,152.8,165.7,152.8,163.2z"/>
	</g>
	<g>
		<g>
			<path class="globe_path7" d="M283.2,236.7c0,2.4-1.9,4.3-4.3,4.3l-40.4,0.1c-2.4,0-4.3-1.9-4.3-4.3l-0.1-94.5c0-2.4,1.9-4.3,4.3-4.3
				l40.4-0.1c2.4,0,4.3,1.9,4.3,4.3L283.2,236.7z"/>
			
				<rect x="235.9" y="150.6" transform="matrix(1 -1.573018e-003 1.573018e-003 1 -0.2962 0.4071)" class="globe_path14" width="45.4" height="75.9"/>
			
				<ellipse transform="matrix(1 -1.577830e-003 1.577830e-003 1 -0.3686 0.4085)" class="globe_path8" cx="258.7" cy="233.8" rx="4.3" ry="4.3"/>
			<path class="globe_path8" d="M263.9,145.4l-14.2,0c-0.4,0-0.8-0.3-0.8-0.8l0,0c0-0.4,0.3-0.8,0.8-0.8l14.2,0c0.4,0,0.8,0.3,0.8,0.8l0,0
				C264.6,145,264.3,145.4,263.9,145.4z"/>
			
				<ellipse transform="matrix(1 -1.631000e-003 1.631000e-003 1 -0.2355 0.4373)" class="globe_path15" cx="268" cy="144.6" rx="0.8" ry="0.8"/>
		</g>
		<g>
			<g>
				<g>
					<path class="globe_path7" d="M258.6,205.6c0,0-14-8-14-27l14-5.2V205.6z"/>
					<path class="globe_path8" d="M258.6,205.6c0,0,14-8,14-27l-14-5.2V205.6z"/>
				</g>
				<g>
					<path class="globe_path7" d="M258.6,205.6c0,0-14-8-14-27l14-5.2V205.6z"/>
					<path class="globe_path8" d="M258.6,205.6c0,0,14-8,14-27l-14-5.2V205.6z"/>
				</g>
			</g>
			<polygon class="globe_path9" points="264.6,185.9 259.8,185.9 259.8,181 257.5,181 257.5,185.9 252.6,185.9 252.6,188.2 257.5,188.2 
				257.5,193 259.8,193 259.8,188.2 264.6,188.2 			"/>
		</g>
	</g>
	<polygon class="globe_path7" points="349.9,126.1 345.6,119.8 319.1,137.7 307.6,125.7 302.1,131 318.1,147.6 318.1,147.6 318.1,147.6 	"/>
	<g>
		<g>
			<g>
				<g>
					<path class="globe_path7" d="M33.6,137.6c0,0-33.4-19.1-33.4-64.7l33.4-12.5V137.6z"/>
					<path class="globe_path8" d="M33.6,137.6c0,0,33.4-19.1,33.4-64.7L33.6,60.4V137.6z"/>
				</g>
				<g>
					<path class="globe_path7" d="M33.6,137.6c0,0-33.4-19.1-33.4-64.7l33.4-12.5V137.6z"/>
					<path class="globe_path8" d="M33.6,137.6c0,0,33.4-19.1,33.4-64.7L33.6,60.4V137.6z"/>
				</g>
			</g>
		</g>
		<g>
			<path class="globe_path10" d="M39.3,102.8c-0.6,0-1.1-0.2-1.5-0.7c-1-1.2-2.5-1.8-4.1-1.8c-1.6,0-3,0.6-4.1,1.8c-0.8,0.8-2.1,0.9-2.9,0.1
				c-0.8-0.8-0.9-2.1-0.1-2.9c1.8-2,4.4-3.2,7.2-3.2c2.7,0,5.3,1.2,7.2,3.2c0.8,0.8,0.7,2.2-0.1,2.9
				C40.3,102.6,39.8,102.8,39.3,102.8L39.3,102.8z M39.3,102.8"/>
			<g>
				<path class="globe_path10" d="M43.9,97.6c-0.5,0-1.1-0.2-1.5-0.6c-2.3-2.3-5.5-3.6-8.8-3.6c-3.3,0-6.4,1.3-8.8,3.6
					c-0.8,0.8-2.1,0.8-2.9,0c-0.8-0.8-0.8-2.1,0-2.9c3.1-3.1,7.3-4.8,11.7-4.8c4.4,0,8.6,1.7,11.7,4.8c0.8,0.8,0.8,2.1,0,2.9
					C44.9,97.4,44.4,97.6,43.9,97.6L43.9,97.6z M43.9,97.6"/>
				<path class="globe_path10" d="M48.4,92.5c-0.5,0-1-0.2-1.4-0.6c-3.6-3.5-8.4-5.4-13.4-5.4c-5,0-9.8,1.9-13.4,5.4
					c-0.8,0.8-2.1,0.8-2.9-0.1c-0.8-0.8-0.8-2.1,0.1-2.9c4.4-4.2,10.2-6.5,16.3-6.5c6.1,0,11.9,2.3,16.2,6.5
					c0.8,0.8,0.9,2.1,0.1,2.9C49.5,92.2,49,92.5,48.4,92.5L48.4,92.5z M48.4,92.5"/>
			</g>
			<path class="globe_path10" d="M36.1,105.8c0,1.4-1.1,2.5-2.5,2.5c-1.4,0-2.5-1.1-2.5-2.5c0-1.4,1.1-2.5,2.5-2.5
				C35,103.3,36.1,104.5,36.1,105.8L36.1,105.8z M36.1,105.8"/>
		</g>
	</g>
	<g>
		<path class="globe_path7" d="M50.4,224.1c-6.7,4.1-11.6,9.3-13.6,11.7l-5.1-4c-0.1-0.1-2.9,2.4-2.8,2.4l9.2,9.4c0.1,0.1,0.2,0.1,0.3,0.1
			c0,0,0,0,0.1,0c0.1,0,0.2-0.1,0.3-0.2c1.5-3.8,6.4-11.7,12.6-17.5c0.1-0.1,0.2-0.3,0.1-0.4C51.5,225.5,50.5,224,50.4,224.1
			L50.4,224.1z M50.4,224.1"/>
		<path class="globe_path7" d="M56.4,215.8c-14,0-16.3-5.3-16.3-5.3c-0.1-0.3-0.4-0.4-0.6-0.4h0c-0.3,0-0.5,0.2-0.6,0.4
			c0,0.1-2.4,5.4-16.3,5.4c-0.4,0-0.7,0.3-0.7,0.7v23.7c0,9.7,16.7,17.1,17.4,17.5c0.1,0,0.2,0.1,0.3,0.1c0.1,0,0.2,0,0.3-0.1
			c0.7-0.3,17.4-7.7,17.4-17.5v-23.7C57.1,216.1,56.8,215.8,56.4,215.8L56.4,215.8z M53.3,238.8c0,7.6-13.1,13.4-13.6,13.7
			c-0.1,0-0.1,0-0.2,0c-0.1,0-0.1,0-0.2,0c-0.5-0.2-13.6-6.1-13.6-13.7v-18.6c0-0.3,0.2-0.5,0.5-0.5c10.9,0,12.8-4.2,12.8-4.2
			c0.1-0.2,0.3-0.3,0.5-0.3h0c0.2,0,0.4,0.1,0.5,0.3c0,0,1.9,4.2,12.8,4.2c0.3,0,0.5,0.2,0.5,0.5V238.8z M53.3,238.8"/>
	</g>
	<path class="globe_path16" d="M79.6,166.4l-8.1,7.2H35.3c-2.6,5-7.8,8.5-13.9,8.5c-8.6,0-15.6-7-15.6-15.6h11c0,2.5,2.1,4.6,4.6,4.6
		c2.5,0,4.6-2.1,4.6-4.6H79.6z"/>
	<path class="globe_path17" d="M16.8,166.4H26c0,2.5-2.1,4.6-4.6,4.6C18.8,171,16.8,169,16.8,166.4z"/>
</g>
</svg>
