<?xml version="1.0" encoding="utf-8"?>
<!-- Generator: Adobe Illustrator 19.0.0, SVG Export Plug-In . SVG Version: 6.00 Build 0)  -->
<svg version="1.1" id="Objects" xmlns="http://www.w3.org/2000/svg" xmlns:xlink="http://www.w3.org/1999/xlink" x="0px" y="0px"
	 viewBox="0 0 800 800" style="enable-background:new 0 0 800 800;" xml:space="preserve">
<style type="text/css">
	.st0{fill:#BDC1C4;}
	.st1{fill:#202736;}
	.st2{fill:#DBDCDD;}
	.st3{fill:#29AAE1;}
	.st4{fill:#F1F1F1;}
	.st5{fill:none;stroke:#F1F1F1;stroke-width:45;stroke-miterlimit:10;}
	.st6{fill:#E5E5E5;}
	.st7{fill:none;stroke:#E5E5E5;stroke-width:34;stroke-miterlimit:10;}
	.st8{fill:none;stroke:#F1F1F1;stroke-width:19;stroke-miterlimit:10;}
	.st9{fill:#F6921E;}
	.st10{fill:#FAAF3B;}
	.st11{fill:#FBED21;}
	.st12{fill:#1E88E5;}
	.st13{fill:#CBCBCB;}
	.st14{fill:#FFFFFF;}
	.st15{fill:#319DFC;}
	.st16{fill:url(#SVGID_1_);}
	.st17{fill:url(#SVGID_2_);}
</style>
<polygon class="st0" points="384,709.5 251.4,709.5 267.5,589.8 368,589.8 "/>
<polygon class="st0" points="378.9,671 368,589.8 267.5,589.8 256.6,671 "/>
<path class="st1" d="M527.1,624.3c0,4.4-3.6,8-8,8H116.4c-4.4,0-8-3.6-8-8v-291c0-4.4,3.6-8,8-8h402.7c4.4,0,8,3.6,8,8V624.3z"/>
<path class="st2" d="M108.3,577.7v46.6c0,4.4,3.6,8,8,8h402.7c4.4,0,8-3.6,8-8v-46.6H108.3z"/>
<rect x="127.6" y="340.6" class="st3" width="380.2" height="237.1"/>
<path class="st0" d="M400.8,702.3h-166c-4,0-7.2,3.2-7.2,7.2H408C408,705.5,404.8,702.3,400.8,702.3z"/>
<path class="st4" d="M505.8,517.3c0.1-1.1,0.2-2.2,0.2-3.4c0-18.1-15.5-32.8-34.5-32.8c-11.4,0-21.5,5.3-27.8,13.3
	c-1.5-0.6-3-1-4.6-1.1c-1.9-19.3-19-34.5-39.9-34.5c-9.3,0-17.9,3-24.7,8.1c-5.4-9.4-15.9-15.7-27.9-15.7c-4.5,0-8.7,0.9-12.6,2.5
	c-2.8-15.8-17.2-27.8-34.6-27.8c-1.4,0-2.9,0.1-4.3,0.3c-0.2-14.9-13-27-28.8-27c-11.3,0-21.1,6.2-25.8,15.2c-1-0.2-2-0.3-3-0.3
	c-8.3,0-15,6.4-15,14.2c0,1.4,0.2,2.7,0.6,4c-8.1,4.1-14.4,11.1-17.3,19.5c-1.8-0.4-3.7-0.6-5.6-0.6c-12.3,0-22.5,8.5-24.6,19.6
	c-15.3,6.3-26,20.8-26,37.6c0,1.2,0.1,2.4,0.2,3.6c-16.4,9.2-27.3,26-27.3,45.4c0,7.2,1.5,14.1,4.3,20.3h382.3
	c7.9-7.3,12.8-17.5,12.8-28.8C521.9,536.1,515.6,524.7,505.8,517.3z M267.7,496.7c-0.6-3.2-2.1-6.2-4.2-8.6c3.1-2.6,5.7-5.6,7.8-9
	c1.5,1.9,3.2,3.6,5,5.1c-0.9,2.8-1.4,5.8-1.4,8.9c0,0.5,0.1,1,0.1,1.6C272.4,495.2,270,495.8,267.7,496.7z"/>
<path class="st5" d="M524.1,258.6c0,0-4.2,4.2-57,57c-93.3,93.3-290.9,78-154.9,224.8"/>
<path class="st6" d="M156.1,577.7c-5.9-5.8-9.6-14-9.6-23c0-10.2,4.7-19.2,12.1-25.1c-0.1-0.9-0.1-1.8-0.1-2.7
	c0-14.4,11.7-26.1,26.1-26.1c8.6,0,16.2,4.2,21,10.6c1.1-0.4,2.3-0.8,3.5-0.9c1.4-15.4,14.4-27.4,30.1-27.4
	c14.1,0,25.9,9.6,29.3,22.6c1.1-0.2,2.2-0.3,3.3-0.3c5,0,9.5,1.9,12.9,5.1c0,0,0,0,0,0c0-13.3,10.8-24.2,24.2-24.2
	c13.4,0,24.2,10.8,24.2,24.2c0,0.4,0,0.8-0.1,1.3c1.9,0.3,3.7,0.9,5.5,1.6c1.3-7.1,7.4-12.4,14.9-12.4c5.2,0,9.8,2.6,12.5,6.7
	c5.4-10.5,16.4-17.6,29-17.6c18.1,0,32.7,14.6,32.7,32.7c0,1,0,1.9-0.1,2.8c12.4,7.3,20.7,20.7,20.7,36.1c0,5.7-1.2,11.2-3.2,16.2
	H156.1z"/>
<path class="st7" d="M524.1,258.6c0,0-4.2,4.2-57,57c-93.3,93.3-290.9,78-154.9,224.8"/>
<path class="st8" d="M524.1,258.6c0,0-4.2,4.2-57,57c-93.3,93.3-290.9,78-154.9,224.8"/>
<g>
	<path class="st9" d="M524.5,289.7l-13.3-18.2L493,258.2c0,0-25.9,24.1-25.9,57.4C500.4,315.6,524.5,289.7,524.5,289.7z"/>
	<path class="st10" d="M520.7,284.5l-9.5-13l-13-9.5c0,0-18.6,17.2-18.6,41.1C503.5,303.1,520.7,284.5,520.7,284.5z"/>
	<path class="st11" d="M517.7,280.3l-6.5-8.9l-8.9-6.5c0,0-12.6,11.7-12.6,27.9C506,292.9,517.7,280.3,517.7,280.3z"/>
</g>
<path class="st12" d="M536.8,192.6c0,0-12.9-6.1-29.7,10.6c-16.8,16.8-50.3,50.3-50.3,50.3s27.9-20.2,44.9-3.3
	C518.7,267.2,536.8,192.6,536.8,192.6z"/>
<path class="st12" d="M590.1,245.9c0,0,6.1,13-10.6,29.7c-16.8,16.8-50.3,50.3-50.3,50.3s20.2-27.9,3.3-44.9
	C515.4,264,590.1,245.9,590.1,245.9z"/>
<rect x="494.8" y="253.9" transform="matrix(0.7071 0.7071 -0.7071 0.7071 339.2609 -287.8215)" class="st6" width="44.5" height="23.5"/>
<rect x="501.1" y="238.6" transform="matrix(0.7072 0.7071 -0.7071 0.7072 323.9127 -281.4668)" class="st13" width="1.2" height="23.5"/>
<rect x="503.5" y="240.9" transform="matrix(0.7071 0.7071 -0.7071 0.7071 326.3355 -282.4643)" class="st13" width="1.2" height="23.5"/>
<rect x="505.9" y="243.3" transform="matrix(0.7071 0.7071 -0.7071 0.7071 328.6283 -283.4194)" class="st13" width="1.2" height="23.5"/>
<rect x="508.2" y="245.6" transform="matrix(0.7071 0.7071 -0.7071 0.7071 331.0471 -284.4163)" class="st13" width="1.2" height="23.5"/>
<rect x="510.6" y="248" transform="matrix(0.7071 0.7071 -0.7071 0.7071 333.3396 -285.3716)" class="st13" width="1.2" height="23.5"/>
<rect x="512.9" y="250.3" transform="matrix(0.7071 0.7071 -0.7071 0.7071 335.7278 -286.3578)" class="st13" width="1.2" height="23.5"/>
<rect x="515.3" y="252.7" transform="matrix(0.7071 0.7071 -0.7071 0.7071 338.0839 -287.3336)" class="st13" width="1.2" height="23.5"/>
<rect x="517.6" y="255.1" transform="matrix(0.7071 0.7071 -0.7071 0.7071 340.4397 -288.3095)" class="st13" width="1.2" height="23.5"/>
<rect x="520" y="257.4" transform="matrix(0.7073 0.7069 -0.7069 0.7073 342.6647 -289.2437)" class="st13" width="1.2" height="23.5"/>
<rect x="522.3" y="259.8" transform="matrix(0.7067 0.7075 -0.7075 0.7067 345.4478 -290.3546)" class="st13" width="1.2" height="23.5"/>
<rect x="524.7" y="262.1" transform="matrix(0.7071 0.7072 -0.7072 0.7071 347.5452 -291.2489)" class="st13" width="1.2" height="23.5"/>
<rect x="527.1" y="264.5" transform="matrix(0.7073 0.7069 -0.7069 0.7073 349.6922 -292.1597)" class="st13" width="1.2" height="23.5"/>
<rect x="529.4" y="266.8" transform="matrix(0.7071 0.7071 -0.7071 0.7071 352.2193 -293.1889)" class="st13" width="1.2" height="23.5"/>
<rect x="531.8" y="269.2" transform="matrix(0.7075 0.7067 -0.7067 0.7075 354.2385 -294.0604)" class="st13" width="1.2" height="23.5"/>
<path class="st14" d="M532.3,285.8c24-11.9,54.9-35.1,85.2-65.3c54.1-54.1,85.6-110.4,70.3-125.6c-15.3-15.3-71.5,16.2-125.6,70.3
	c-30.2,30.2-53.4,61.1-65.3,85.2L532.3,285.8z"/>
<path class="st15" d="M567.6,263.7c7.3-5.4,14.8-11.3,22.5-17.9c0,0-3.6,2.8-29.9-23.4s-23.4-29.9-23.4-29.9
	c-6.5,7.6-12.5,15.2-17.9,22.5c0,0-2.7,3.8,21.1,27.6C563.8,266.4,567.6,263.7,567.6,263.7z"/>
<path class="st12" d="M663,167.5c24.4-33.9,35.1-62.5,24.8-72.7c-10.2-10.2-38.7,0.5-72.7,24.8c0,0,5.2,15.5,18.8,29
	C647.5,162.3,663,167.5,663,167.5z"/>
<circle class="st12" cx="612.3" cy="170.4" r="21.7"/>
<circle class="st4" cx="612.3" cy="170.4" r="17.2"/>
<linearGradient id="SVGID_1_" gradientUnits="userSpaceOnUse" x1="164.6912" y1="-539.5948" x2="164.6912" y2="-572.0726" gradientTransform="matrix(0.4237 0.9058 -0.9058 0.4237 42.7763 264.8323)">
	<stop  offset="0" style="stop-color:#FFFFFF;stop-opacity:0"/>
	<stop  offset="1" style="stop-color:#FFFFFF"/>
</linearGradient>
<path class="st16" d="M629.3,168.5l-29.4,13.8c1.9,2,4.2,3.5,6.8,4.3l21.6-10.1C629.2,174,629.6,171.3,629.3,168.5z"/>
<linearGradient id="SVGID_2_" gradientUnits="userSpaceOnUse" x1="153.7647" y1="-538.671" x2="153.7647" y2="-572.9951" gradientTransform="matrix(0.4237 0.9058 -0.9058 0.4237 42.7763 264.8323)">
	<stop  offset="0" style="stop-color:#FFFFFF;stop-opacity:0"/>
	<stop  offset="1" style="stop-color:#FFFFFF"/>
</linearGradient>
<path class="st17" d="M627.9,163.5c-0.1-0.1-0.1-0.2-0.1-0.4c-0.6-1.4-1.5-2.6-2.4-3.7l-30,14c0.3,1.4,0.7,2.9,1.3,4.2
	c0.1,0.1,0.1,0.2,0.2,0.3L627.9,163.5z"/>
<g>
	<circle class="st15" cx="626.1" cy="156.6" r="1.4"/>
	<circle class="st15" cx="617.3" cy="151.6" r="1.4"/>
	<circle class="st15" cx="607.2" cy="151.6" r="1.4"/>
	<path class="st15" d="M599.4,155.6c0.5,0.5,0.5,1.4,0,1.9c-0.5,0.5-1.4,0.5-1.9,0c-0.5-0.5-0.5-1.4,0-1.9
		C598,155.1,598.9,155.1,599.4,155.6z"/>
	<path class="st15" d="M593.7,164c0.7,0.2,1.2,0.9,1,1.7c-0.2,0.7-0.9,1.2-1.7,1c-0.7-0.2-1.2-0.9-1-1.7
		C592.3,164.3,593,163.8,593.7,164z"/>
	<path class="st15" d="M593,174.2c0.7-0.2,1.5,0.2,1.7,1c0.2,0.7-0.2,1.5-1,1.7c-0.7,0.2-1.5-0.2-1.7-1
		C591.9,175.1,592.3,174.3,593,174.2z"/>
	<path class="st15" d="M597.5,183.3c0.5-0.5,1.4-0.5,1.9,0c0.5,0.5,0.5,1.4,0,1.9c-0.5,0.5-1.4,0.5-1.9,0
		C596.9,184.7,596.9,183.8,597.5,183.3z"/>
	<path class="st15" d="M605.9,188.9c0.2-0.7,0.9-1.2,1.7-1c0.7,0.2,1.2,0.9,1,1.7c-0.2,0.7-0.9,1.2-1.7,1
		C606.1,190.4,605.7,189.7,605.9,188.9z"/>
	<path class="st15" d="M616,189.6c-0.2-0.7,0.2-1.5,1-1.7c0.7-0.2,1.5,0.2,1.7,1c0.2,0.7-0.2,1.5-1,1.7
		C616.9,190.8,616.2,190.4,616,189.6z"/>
	<path class="st15" d="M625.1,185.2c-0.5-0.5-0.5-1.4,0-1.9c0.5-0.5,1.4-0.5,1.9,0c0.5,0.5,0.5,1.4,0,1.9
		C626.5,185.7,625.6,185.7,625.1,185.2z"/>
	<path class="st15" d="M630.8,176.8c-0.7-0.2-1.2-0.9-1-1.7c0.2-0.7,1-1.2,1.7-1c0.7,0.2,1.2,0.9,1,1.7
		C632.2,176.6,631.5,177,630.8,176.8z"/>
	<path class="st15" d="M631.5,166.7c-0.7,0.2-1.5-0.2-1.7-1c-0.2-0.7,0.2-1.5,1-1.7c0.7-0.2,1.5,0.2,1.7,1
		C632.6,165.7,632.2,166.5,631.5,166.7z"/>
</g>
<ellipse transform="matrix(0.7071 0.7071 -0.7071 0.7071 336.3467 -294.8602)" class="st12" cx="524.1" cy="258.6" rx="4.6" ry="44"/>
<path class="st4" d="M413.6,577.7c4.7-4.6,7.6-11,7.6-18.1c0-8-3.7-15.2-9.5-19.8c0.1-0.7,0.1-1.4,0.1-2.1
	c0-11.4-9.2-20.6-20.6-20.6c-6.8,0-12.8,3.3-16.5,8.4c-0.9-0.4-1.8-0.6-2.7-0.7c-1.1-12.1-11.3-21.6-23.8-21.6
	c-11.1,0-20.4,7.6-23.1,17.8c-0.9-0.1-1.7-0.2-2.6-0.2c-3.9,0-7.5,1.5-10.2,4c0,0,0,0,0,0c0-10.5-8.5-19.1-19.1-19.1
	c-10.5,0-19.1,8.5-19.1,19.1c0,0.3,0,0.7,0.1,1c-1.5,0.3-2.9,0.7-4.3,1.3c-1-5.6-5.9-9.8-11.7-9.8c-4.1,0-7.8,2.1-9.9,5.3
	c-4.3-8.3-12.9-13.9-22.9-13.9c-14.2,0-25.8,11.5-25.8,25.8c0,0.8,0,1.5,0.1,2.2c-9.7,5.8-16.3,16.4-16.3,28.5
	c0,4.5,0.9,8.8,2.6,12.8H413.6z"/>
</svg>
