<?xml version="1.0" encoding="utf-8"?>
<!-- Generator: Adobe Illustrator 19.2.1, SVG Export Plug-In . SVG Version: 6.00 Build 0)  -->
<svg version="1.1" id="Layer_1" xmlns="http://www.w3.org/2000/svg" xmlns:xlink="http://www.w3.org/1999/xlink" x="0px" y="0px"
	 viewBox="0 0 139.7 33" style="enable-background:new 0 0 139.7 33;" xml:space="preserve">
<style type="text/css">
	.st0{fill:#1E88E5;}
	.st1{fill:#232C3B;}
</style>
<g>
	<path class="st0" d="M39.2,1.1c-1.2,0-2.2,1-2.2,2.2c0,0.6,0.2,1.1,0.6,1.5c-2.9,2.9-5.2,2.7-7-0.7c0.6-0.4,1-1.1,1-1.8
		c0-1.2-1-2.2-2.2-2.2c-1.2,0-2.2,1-2.2,2.2c0,0.7,0.3,1.3,0.8,1.7c-2.1,3.4-4.3,3.7-6.9,0.8c0.4-0.4,0.6-1,0.6-1.5
		c0-1.2-1-2.2-2.2-2.2c-1.2,0-2.2,1-2.2,2.2c0,1.2,1,2.2,2.1,2.2l1.8,9.2c2.2-2.1,4.9-3.1,8.1-3.1c3,0,5.6,0.9,7.8,2.8l2.1-8.8
		c1.2,0,2.2-1,2.2-2.2C41.5,2.1,40.5,1.1,39.2,1.1z M20.1,4.2l-0.2,0.1l-0.2,0c-0.1,0-0.2,0-0.2,0c-0.7,0-1.2-0.6-1.2-1.2
		c0-0.7,0.6-1.2,1.2-1.2c0.7,0,1.2,0.5,1.2,1.2C20.7,3.6,20.5,4,20.1,4.2z M29.8,3.3l-0.5,0.2l-0.4-0.2c-0.4-0.2-0.7-0.6-0.7-1.1
		c0-0.7,0.6-1.2,1.2-1.2c0.7,0,1.2,0.6,1.2,1.2C30.6,2.7,30.3,3.2,29.8,3.3z M39,4.4l-0.2,0l-0.2-0.1c-0.4-0.2-0.5-0.6-0.5-1
		c0-0.7,0.5-1.2,1.2-1.2c0.7,0,1.2,0.5,1.2,1.2C40.5,4,39.8,4.6,39,4.4z"/>
	<path class="st0" d="M75.4,13.9h3.1v8.9l8.4-8.9h3.9l-7.4,8l7.5,10.3h-3.7l-6.1-8l-2.7,2.9v5.1h-3.1V13.9z"/>
	<path class="st0" d="M93.8,13.9H97v18.3h-3.1V13.9z"/>
	<path class="st0" d="M115.8,13.9h3.1v18.3h-3.3l-10.4-13.4v13.4H102V13.9h3.1l10.7,13.7V13.9z"/>
	<path class="st0" d="M136.7,23.3h3.1v6.3c-1.7,1.9-4.2,2.9-7.4,2.9c-2.7,0-5-0.9-6.8-2.7c-1.8-1.8-2.7-4-2.7-6.7s0.9-5,2.8-6.8
		c1.9-1.8,4.1-2.8,6.8-2.8c2.6,0,4.9,0.8,6.6,2.3l-1.6,2.4c-1.3-1.1-2.8-1.6-4.7-1.6c-1.9,0-3.4,0.6-4.7,1.8
		c-1.3,1.2-1.9,2.8-1.9,4.7c0,1.9,0.6,3.5,1.8,4.7c1.2,1.2,2.7,1.8,4.5,1.8c1.7,0,3.2-0.4,4.4-1.1V23.3z"/>
</g>
<g class="logo_colored">
	<polygon class="st1" points="12.2,32.8 12.2,25.3 4.1,25.3 4.1,32.8 0,32.8 0,13.4 4.1,13.4 4.1,21.4 12.2,21.4 12.2,13.4 
		16.3,13.4 16.3,32.8 	"/>
	<path class="st1" d="M29.4,33c-2.9,0-5.3-1-7.2-2.9c-1.9-1.9-2.9-4.3-2.9-7.1c0-2.8,1-5.2,2.9-7.1c1.9-1.9,4.4-2.9,7.2-2.9
		s5.3,1,7.3,2.9c1.9,1.9,2.9,4.3,2.9,7.1c0,2.8-1,5.2-3,7.1C34.6,32,32.2,33,29.4,33z M29.4,16.8c-1.7,0-3.1,0.6-4.3,1.8
		c-1.2,1.2-1.7,2.6-1.7,4.4c0,1.7,0.6,3.2,1.7,4.4c1.2,1.2,2.6,1.8,4.3,1.8c1.7,0,3.1-0.6,4.3-1.8c1.2-1.2,1.7-2.6,1.7-4.4
		c0-1.7-0.6-3.2-1.7-4.4C32.5,17.4,31.1,16.8,29.4,16.8z"/>
	<path class="st1" d="M49.1,33c-2.9,0-5.6-1.1-8-3.1l-0.4-0.3l2.6-3.1l0.4,0.3c1.8,1.5,3.6,2.3,5.4,2.3c0.9,0,1.6-0.2,2.1-0.6
		c0.5-0.3,0.7-0.8,0.7-1.3c0-0.5-0.2-0.9-0.6-1.2c-0.5-0.4-1.4-0.7-2.7-1c-2.5-0.6-4.2-1.2-5.1-2c-1.2-0.9-1.8-2.3-1.8-4.2
		c0-1.8,0.7-3.2,2-4.3c1.3-1,2.9-1.5,4.9-1.5c2.6,0,4.9,0.8,6.8,2.3l0.4,0.3l-2.2,3.2l-0.4-0.4c-0.5-0.5-1.2-0.8-2-1.1
		c-0.9-0.3-1.7-0.4-2.6-0.4c-0.8,0-1.5,0.2-1.9,0.5c-0.4,0.3-0.6,0.7-0.6,1.2c0,0.6,0.2,1,0.6,1.3c0.4,0.3,1.3,0.7,3.5,1.3
		c2.1,0.5,3.6,1.2,4.5,2.1c1,0.9,1.5,2.2,1.5,3.9c0,1.8-0.7,3.2-2,4.3C52.9,32.4,51.2,33,49.1,33z"/>
	<polygon class="st1" points="62.8,32.8 62.8,17.2 57.3,17.2 57.3,13.4 72.5,13.4 72.5,17.2 66.9,17.2 66.9,32.8 	"/>
</g>
</svg>
