<?xml version="1.0" encoding="utf-8"?>
<!-- Generator: Adobe Illustrator 19.2.1, SVG Export Plug-In . SVG Version: 6.00 Build 0)  -->
<svg version="1.1" id="Layer_1" xmlns="http://www.w3.org/2000/svg" xmlns:xlink="http://www.w3.org/1999/xlink" x="0px" y="0px"
	 viewBox="0 0 340.1 381.1" style="enable-background:new 0 0 340.1 381.1;" xml:space="preserve">
<style type="text/css">
	.st0{opacity:0.4;fill-rule:evenodd;clip-rule:evenodd;fill:#FFFFFF;}
	.st1{fill-rule:evenodd;clip-rule:evenodd;fill:#FFFFFF;}
	.st2{fill-rule:evenodd;clip-rule:evenodd;fill:#D5D5D5;}
	.st3{fill-rule:evenodd;clip-rule:evenodd;fill:#8B4B14;}
	.st4{fill-rule:evenodd;clip-rule:evenodd;fill:#C6681C;}
	.st5{fill-rule:evenodd;clip-rule:evenodd;fill:#E27E29;}
	.st6{fill-rule:evenodd;clip-rule:evenodd;fill:#F4D458;}
	.st7{fill-rule:evenodd;clip-rule:evenodd;fill:#E3A429;}
	.st8{fill-rule:evenodd;clip-rule:evenodd;fill:#FCF4D0;}
	.st9{fill-rule:evenodd;clip-rule:evenodd;fill:#F6DA6B;}
	.st10{fill-rule:evenodd;clip-rule:evenodd;fill:#8EC8AA;}
	.st11{fill-rule:evenodd;clip-rule:evenodd;fill:#6BA585;}
	.st12{fill-rule:evenodd;clip-rule:evenodd;fill:#B7621A;}
	.st13{fill-rule:evenodd;clip-rule:evenodd;fill:#F0C26E;}
	.st14{fill-rule:evenodd;clip-rule:evenodd;fill:#589B91;}
	.st15{fill-rule:evenodd;clip-rule:evenodd;fill:#9CF5EB;}
	.st16{fill-rule:evenodd;clip-rule:evenodd;fill:#305450;}
</style>
<g>
	<path class="st0 rocket_1" d="M256.3,180.8c8.6,0,16.2,4,21.1,10.2l-0.3,2.2c-4.3-4.8-10.6-7.9-17.5-7.9c-6.4,0-12.3,2.6-16.5,6.8
		c0-0.4,0-0.7,0-1.1c0-24.4-19.7-44.1-44.1-44.1c-15,0-28.3,7.5-36.2,19c-5.7-9.2-16-15.4-27.6-15.4c-6.7,0-12.8,2-18,5.4
		c-10.5-31.6-40.3-54.3-75.4-54.3c-15.3,0-29.6,4.3-41.7,11.8V95.7C10.4,91.4,21.8,89,33.8,89c38.2,0,70.8,24.1,83.4,57.8
		c4.2-1.7,8.9-2.7,13.7-2.7c10.8,0,20.5,4.7,27.2,12.2l0.1-0.1c9.4-10.6,23.2-17.3,38.5-17.3c25.6,0,46.9,18.7,50.8,43.2
		C250.2,181.3,253.2,180.8,256.3,180.8L256.3,180.8z"/>
	<path class="rocket_1" d="M287.9,114.6h3.6l-3.3,122.7c-7.9-13-22.2-21.7-38.5-21.7c-5.4,0-10.5,0.9-15.3,2.7c-6.2-24.2-28.2-42-54.3-42
		c-15.5,0-29.5,6.3-39.6,16.4c-9.8-7.9-22.2-12.6-35.8-12.6c-8.4,0-16.4,1.8-23.6,5.1C67.5,153.8,36.3,132,0,132v-18.5
		c12.1-7.5,26.4-11.8,41.7-11.8c35.1,0,64.9,22.8,75.4,54.3c5.1-3.4,11.3-5.4,18-5.4c11.7,0,21.9,6.2,27.6,15.4
		c8-11.5,21.2-19,36.3-19c24.4,0,44.1,19.8,44.1,44.1c0,0.4,0,0.7,0,1.1c4.3-4.2,10.1-6.8,16.5-6.8c7,0,13.2,3,17.5,7.9L287.9,114.6
		z"/>
	<polygon class="rocket_1" points="333,381.1 314.1,381.1 301.8,114.6 305.4,114.6 	"/>
	<path class="st2" d="M316.9,112.1c5.8-10.8,9.4-29.6,9.4-44.3c0-17.7-7.1-38.6-14.9-52.4h-29.6C274.1,29.2,267,50.1,267,67.8
		c0,14.7,3.6,33.5,9.4,44.3H316.9L316.9,112.1z"/>
	<path class="st3" d="M284.6,118.5c-1.9,0-4.1-0.3-5.5-2.1c-1-1.2-1.9-2.7-2.7-4.3h40.5c-0.9,1.6-1.8,3-2.7,4.3
		c-1.4,1.7-3.6,2.1-5.5,2.1H284.6L284.6,118.5z"/>
	<path class="st4" d="M281.9,15.4C287.1,6.1,292.6,0,296.6,0c4,0,9.6,6.1,14.8,15.4H281.9L281.9,15.4z"/>
	<path class="st5" d="M299.7,15.4c-2.9-5.6-6-9.1-8.6-9.1c-1.7,0-3.8,1.5-6.2,4.1c-1,1.5-2,3.2-3,5H299.7L299.7,15.4z"/>
	<path class="rocket_1" d="M303.3,94.3c3.3-9,5.8-20.1,6.5-29.4c1.2-15.3-2.9-33.3-8.1-45.3c-0.7-1.5-1.3-2.9-2-4.2h-17.8
		C274.6,28.2,268,47,267.1,63.8c0.1-0.1,0.2-0.2,0.3-0.3c1.2-1.3,3.2-1,3,1.9h0c-0.7,14.9,2.4,29.9,9.6,43.2h12.3c0.3,0,0.6,0,0.9,0
		l-1.3-25c-0.2-2.8,2.2-5.3,4.8-5.3c1.6,0,3,0.9,3.9,2.2c0.6,0.8,1,1.7,1.1,2.7L303.3,94.3L303.3,94.3z"/>
	<path class="st6" d="M296.6,171.1c-8.2-6.6-15.8-22.6-15.8-35.3c0-6.9,2.1-13.2,5.4-17.4h10.4V171.1L296.6,171.1z"/>
	<path class="st7" d="M296.6,171.1c8.2-6.6,15.8-22.6,15.8-35.3c0-6.9-2.1-13.2-5.4-17.4h-10.4V171.1L296.6,171.1z"/>
	<path class="st8" d="M296.6,153.8c-5.8-4.7-11.2-16-11.2-25c0-3.9,0.9-7.5,2.5-10.3h8.7V153.8L296.6,153.8z"/>
	<path class="st9" d="M296.6,153.8c5.8-4.7,11.2-16,11.2-25c0-3.9-0.9-7.5-2.5-10.3h-8.7V153.8L296.6,153.8z"/>
	<path class="st10" d="M296.6,68c-7,0-12.7-5.7-12.7-12.7c0-7,5.7-12.7,12.7-12.7V68L296.6,68z"/>
	<path class="st11" d="M296.6,68c7,0,12.7-5.7,12.7-12.7c0-7-5.7-12.7-12.7-12.7V68L296.6,68z"/>
	<path class="st5" d="M296.6,73.8c-10.2,0-18.5-8.3-18.5-18.5c0-10.2,8.3-18.5,18.5-18.5c10.2,0,18.5,8.3,18.5,18.5
		C315.1,65.5,306.9,73.8,296.6,73.8L296.6,73.8z"/>
	<path class="st3" d="M316.9,112.1l12.6,14.2c1.8,3.3,4.4,1.7,5.9-0.2c10.8-13.7,1.1-48.5-9.2-62.3c0.1,1.3,0.1,2.7,0.1,4
		C326.3,82.5,322.7,101.2,316.9,112.1L316.9,112.1L316.9,112.1z"/>
	<path class="st12" d="M316.9,112.1l12.6,14.2c2.2,2.5,4.2-1,5.2-2.6c6.6-11-0.9-36.5-8.6-49.3C325.2,87.8,321.8,102.9,316.9,112.1
		L316.9,112.1L316.9,112.1L316.9,112.1z"/>
	<path class="st13" d="M276.4,112.1l-12.6,14.2c-1.8,3.3-4.4,1.7-5.9-0.2C247,112.3,257,77,267.4,63.5c1.3-1.4,3.5-0.9,2.9,2.5
		C268.1,79.8,270.9,101.8,276.4,112.1L276.4,112.1z"/>
	<path class="st5" d="M276.4,112.1l-12.6,14.2c-2.2,2.5-4.2-1-5.2-2.6c-7.3-12.2,2.7-42.3,11.1-53c0,0.2,0,0.4,0,0.6l0,0.1l0,0.5
		l0,0.2l0,0.5l0,0.2l0,0.5l0,0.2C269.1,86.7,271.8,103.5,276.4,112.1L276.4,112.1z"/>
	<path class="st5" d="M296.6,78.3c2.6,0,4.9,2.6,4.8,5.3l-2.3,42.8c-0.1,1.4-1.1,2.7-2.5,2.7c-1.4,0-2.4-1.3-2.5-2.7l-2.3-42.8
		C291.7,80.7,294,78.3,296.6,78.3L296.6,78.3z"/>
	<path class="st12" d="M296.6,78.3c2.6,0,4.9,2.6,4.8,5.3l-2.3,42.8c-0.1,1.4-1.1,2.7-2.5,2.7c-1.2,0-2.1-1-2.4-2.2
		c0.3,0.4,0.7,0.6,1.1,0.6c0.7,0,1.3-0.8,1.3-1.5V83.5c0-1.5-1.3-2.8-2.8-2.7c-0.7,0-1.3,0.4-1.8,0.9
		C292.8,79.7,294.6,78.3,296.6,78.3L296.6,78.3z"/>
	<path class="st12" d="M296.6,73.8c-7.8,0-14.5-4.8-17.2-11.6c3.1,4,8,6.5,13.4,6.5c9.4,0,17.1-7.7,17.1-17.1
		c0-5.5-2.6-10.3-6.5-13.4c6.8,2.7,11.6,9.4,11.6,17.2C315.1,65.5,306.9,73.8,296.6,73.8L296.6,73.8z"/>
	<path class="st3" d="M296.6,69.3c-7.7,0-14-6.3-14-14c0-7.7,6.3-14,14-14c7.7,0,14,6.3,14,14C310.7,63,304.4,69.3,296.6,69.3
		L296.6,69.3z"/>
	<path class="st14" d="M296.6,68c-7,0-12.7-5.7-12.7-12.7c0-7,5.7-12.7,12.7-12.7c7,0,12.7,5.7,12.7,12.7
		C309.4,62.3,303.7,68,296.6,68L296.6,68z"/>
	<path class="st15" d="M291.6,45.3c2.7,0,4.9,2.2,4.9,4.9c0,2.7-2.2,4.9-4.9,4.9c-2.7,0-4.9-2.2-4.9-4.9
		C286.7,47.5,288.9,45.3,291.6,45.3L291.6,45.3z"/>
	<path class="st16" d="M296.6,68c-7,0-12.7-5.7-12.7-12.7c0-0.8,0.1-1.5,0.2-2.2l0,0.1c0,5.7,4.6,10.4,10.4,10.4
		c5.7,0,10.4-4.6,10.4-10.4c0-5.7-4.6-10.4-10.4-10.4l-0.1,0c0.7-0.1,1.5-0.2,2.2-0.2c7,0,12.7,5.7,12.7,12.7
		C309.4,62.3,303.7,68,296.6,68L296.6,68z"/>
</g>
</svg>
