<?xml version="1.0" encoding="utf-8"?>
<!-- Generator: Adobe Illustrator 19.0.0, SVG Export Plug-In . SVG Version: 6.00 Build 0)  -->
<svg version="1.1" id="icons" xmlns="http://www.w3.org/2000/svg" xmlns:xlink="http://www.w3.org/1999/xlink" x="0px" y="0px"
	 viewBox="-248 395.3 114.1 2.7" style="enable-background:new -248 395.3 114.1 2.7;" xml:space="preserve">
<style type="text/css">
	.st0{fill:none;stroke:#EEEEEE;stroke-width:0.3;stroke-miterlimit:10;}
</style>
<path class="st0" d="M-248,395.7l7.8,2.2l7.7-2.1c1.4-0.4,2.9-0.4,4.3,0l5.6,1.5c1.4,0.4,2.9,0.4,4.3,0l5.5-1.5
	c1.4-0.4,2.9-0.4,4.3,0l5.5,1.5c1.4,0.4,2.9,0.4,4.3,0l5.5-1.5c1.4-0.4,2.9-0.4,4.3,0l5.6,1.5c1.4,0.4,2.9,0.4,4.3,0l5.5-1.5
	c1.4-0.4,2.9-0.4,4.3,0l5.6,1.5c1.4,0.4,2.9,0.4,4.3,0l5.5-1.5c1.4-0.4,2.9-0.4,4.3,0l5.5,1.5c1.4,0.4,2.9,0.4,4.3,0l5.6-1.6"/>
</svg>
