<?xml version="1.0" encoding="utf-8"?>
<!-- Generator: Adobe Illustrator 19.2.1, SVG Export Plug-In . SVG Version: 6.00 Build 0)  -->
<svg version="1.1" id="icons" xmlns="http://www.w3.org/2000/svg" xmlns:xlink="http://www.w3.org/1999/xlink" x="0px" y="0px"
	 viewBox="0 0 114.1 2.7" style="enable-background:new 0 0 114.1 2.7;" xml:space="preserve">
<style type="text/css">
	.st0{fill:none;stroke:#222222;stroke-width:0.3;stroke-miterlimit:10;}
</style>
<path class="st0" d="M0,0.4l7.8,2.2l7.7-2.1c1.4-0.4,2.9-0.4,4.3,0L25.4,2c1.4,0.4,2.9,0.4,4.3,0l5.5-1.5c1.4-0.4,2.9-0.4,4.3,0
	L45,2c1.4,0.4,2.9,0.4,4.3,0l5.5-1.5c1.4-0.4,2.9-0.4,4.3,0L64.7,2c1.4,0.4,2.9,0.4,4.3,0l5.5-1.5c1.4-0.4,2.9-0.4,4.3,0L84.4,2
	c1.4,0.4,2.9,0.4,4.3,0l5.5-1.5c1.4-0.4,2.9-0.4,4.3,0l5.5,1.5c1.4,0.4,2.9,0.4,4.3,0l5.6-1.6"/>
</svg>
